<svg width="78" height="13" viewBox="0 0 78 13" fill="none" xmlns="http://www.w3.org/2000/svg">
<g id="Star" opacity="0.8">
<g id="Icon/Solid/star">
<path id="Icon" d="M6.06627 1.26951C6.32349 0.477872 7.44344 0.477872 7.70066 1.26951L8.61969 4.09798C8.73472 4.45201 9.06463 4.69171 9.43688 4.69171H12.4109C13.2433 4.69171 13.5894 5.75685 12.916 6.24611L10.5099 7.9942C10.2088 8.213 10.0828 8.60084 10.1978 8.95487L11.1168 11.7833C11.374 12.575 10.468 13.2333 9.79456 12.744L7.38852 10.9959C7.08736 10.7771 6.67957 10.7771 6.37841 10.9959L3.97237 12.744C3.29896 13.2333 2.3929 12.575 2.65012 11.7833L3.56914 8.95487C3.68418 8.60084 3.55816 8.213 3.257 7.9942L0.85096 6.24611C0.177554 5.75685 0.523639 4.69171 1.35601 4.69171H4.33005C4.7023 4.69171 5.03221 4.45201 5.14724 4.09798L6.06627 1.26951Z" fill="#F59E0B"/>
</g>
<g id="Icon/Solid/star_2">
<path id="Icon_2" d="M22.0458 1.26951C22.303 0.477872 23.4229 0.477872 23.6802 1.26951L24.5992 4.09798C24.7142 4.45201 25.0441 4.69171 25.4164 4.69171H28.3904C29.2228 4.69171 29.5689 5.75685 28.8955 6.24611L26.4894 7.9942C26.1883 8.213 26.0622 8.60084 26.1773 8.95487L27.0963 11.7833C27.3535 12.575 26.4475 13.2333 25.7741 12.744L23.368 10.9959C23.0669 10.7771 22.6591 10.7771 22.3579 10.9959L19.9519 12.744C19.2785 13.2333 18.3724 12.575 18.6296 11.7833L19.5486 8.95487C19.6637 8.60084 19.5377 8.213 19.2365 7.9942L16.8305 6.24611C16.157 5.75685 16.5031 4.69171 17.3355 4.69171H20.3095C20.6818 4.69171 21.0117 4.45201 21.1267 4.09798L22.0458 1.26951Z" fill="#F59E0B"/>
</g>
<g id="Icon/Solid/star_3">
<path id="Icon_3" d="M38.0243 1.26951C38.2815 0.477872 39.4015 0.477872 39.6587 1.26951L40.5777 4.09798C40.6927 4.45201 41.0226 4.69171 41.3949 4.69171H44.3689C45.2013 4.69171 45.5474 5.75685 44.874 6.24611L42.4679 7.9942C42.1668 8.213 42.0408 8.60084 42.1558 8.95487L43.0748 11.7833C43.332 12.575 42.426 13.2333 41.7526 12.744L39.3465 10.9959C39.0454 10.7771 38.6376 10.7771 38.3364 10.9959L35.9304 12.744C35.257 13.2333 34.3509 12.575 34.6081 11.7833L35.5272 8.95487C35.6422 8.60084 35.5162 8.213 35.215 7.9942L32.809 6.24611C32.1356 5.75685 32.4816 4.69171 33.314 4.69171H36.2881C36.6603 4.69171 36.9902 4.45201 37.1053 4.09798L38.0243 1.26951Z" fill="#F59E0B"/>
</g>
<g id="Icon/Solid/star_4">
<path id="Icon_4" d="M54.0038 1.26951C54.261 0.477872 55.3809 0.477872 55.6382 1.26951L56.5572 4.09798C56.6722 4.45201 57.0021 4.69171 57.3744 4.69171H60.3484C61.1808 4.69171 61.5269 5.75685 60.8535 6.24611L58.4474 7.9942C58.1463 8.213 58.0203 8.60084 58.1353 8.95487L59.0543 11.7833C59.3115 12.575 58.4055 13.2333 57.7321 12.744L55.326 10.9959C55.0249 10.7771 54.6171 10.7771 54.3159 10.9959L51.9099 12.744C51.2365 13.2333 50.3304 12.575 50.5876 11.7833L51.5066 8.95487C51.6217 8.60084 51.4957 8.213 51.1945 7.9942L48.7885 6.24611C48.1151 5.75685 48.4611 4.69171 49.2935 4.69171H52.2675C52.6398 4.69171 52.9697 4.45201 53.0847 4.09798L54.0038 1.26951Z" fill="#F59E0B"/>
</g>
<g id="Icon/Solid/star_5">
<path id="Icon_5" d="M69.9833 1.26951C70.2405 0.477872 71.3604 0.477872 71.6177 1.26951L72.5367 4.09798C72.6517 4.45201 72.9816 4.69171 73.3539 4.69171H76.3279C77.1603 4.69171 77.5064 5.75685 76.833 6.24611L74.4269 7.9942C74.1258 8.213 73.9997 8.60084 74.1148 8.95487L75.0338 11.7833C75.291 12.575 74.385 13.2333 73.7116 12.744L71.3055 10.9959C71.0044 10.7771 70.5966 10.7771 70.2954 10.9959L67.8894 12.744C67.216 13.2333 66.3099 12.575 66.5671 11.7833L67.4861 8.95487C67.6012 8.60084 67.4752 8.213 67.174 7.9942L64.768 6.24611C64.0945 5.75685 64.4406 4.69171 65.273 4.69171H68.247C68.6193 4.69171 68.9492 4.45201 69.0642 4.09798L69.9833 1.26951Z" fill="#F59E0B"/>
</g>
</g>
</svg>
